<?xml version="1.0" encoding="utf-8"?>
<!-- Generator: Adobe Illustrator 19.2.1, SVG Export Plug-In . SVG Version: 6.00 Build 0)  -->
<svg version="1.1" id="layer" xmlns="http://www.w3.org/2000/svg" xmlns:xlink="http://www.w3.org/1999/xlink" x="0px" y="0px"
	 viewBox="0 0 652 652" style="enable-background:new 0 0 652 652;" xml:space="preserve">
<style type="text/css">
	.st0{fill:#231815;}
	.st1{fill:#E60012;}
</style>
<g>
	<path class="st0" d="M187.4,163.6C226.4,141,271.7,128,320,128c48.3,0,93.7,13,132.7,35.6l46.7-36.9
		C448.2,92.1,386.5,71.8,320,71.8c-66.5,0-128.2,20.2-179.4,54.8L187.4,163.6z"/>
	<path class="st0" d="M187.4,480.1c39,22.6,84.3,35.6,132.7,35.6c48.3,0,93.7-13,132.7-35.6l46.7,36.9
		c-51.2,34.6-112.9,54.8-179.4,54.8c-66.5,0-128.2-20.2-179.4-54.8L187.4,480.1z"/>
	<path class="st0" d="M478.3,189.4c22.6,39,35.6,84.3,35.6,132.7s-13,93.7-35.6,132.7l36.9,46.7C549.8,450.2,570,388.5,570,322
		s-20.2-128.2-54.8-179.4L478.3,189.4z"/>
	<path class="st0" d="M161.8,189.4c-22.6,39-35.6,84.3-35.6,132.7s13,93.7,35.6,132.7l-36.9,46.7C90.3,450.2,70,388.5,70,322
		s20.2-128.2,54.8-179.4L161.8,189.4z"/>
	<path class="st0" d="M300,227.4v42.4c0,0-18.5-19.5-52.6-19.5c-34.2,0-32.9,19.5-32.9,21.4c0,5.6-2.6,13,35.6,31.2
		c39.1,18.7,59,43.1,59,73.1c0,30-18.5,65.6-68.7,65.6c-44.9,0-68-22-68-22v-49c0,0,21.8,32.1,63.8,32.1c31.9,0,30.4-25.3,30.4-28.6
		c0-3.3-2.1-18.3-19.2-26.6c-17.1-8.4-52.4-24.2-63-38.9c-10.5-14.8-12.1-25.2-12.1-36.6c0-21.4,16.7-60.1,73.2-60.1
		C283.7,212,300,227.4,300,227.4"/>
	<path class="st0" d="M408.3,211.3c-36,0-75.5,15.5-75.5,15.5v15.5v5.6v194.6h42.9V257.3c6.7-3.3,17.6-6.1,35.3-6.1
		c38.6,0,58.9,17.8,58.9,17.8v-42.2C469.9,226.9,447.8,211.3,408.3,211.3"/>
	<path class="st1" d="M450.7,326.6c0,14.8-12,26.8-26.8,26.8s-26.8-12-26.8-26.8c0-14.8,12-26.8,26.8-26.8S450.7,311.7,450.7,326.6"
		/>
</g>
</svg>
